# xmcd CD database file
#
# Track frame offsets:
#	150
#	13629
#	25705
#	36082
#	46863
#	56772
#	64801
#	77112
#	91990
#	106152
#	120452
#	133361
#	145776
#	156534
#	166115
#	178440
#	195267
#	206929
#	217403
#	237283
#
# Disc length: 3307 seconds
#
# Revision: 2
# Processed by: cddbd v1.5.2PL0 Copyright (c) Steve Scherf et al.
# Submitted via: CDex 1.51
#
DISCID=220ce914
DTITLE=Various  - Country Legends [CD 6)
DYEAR=1900
DGENRE=Country
TTITLE0=bellamy brothers - do you love as good as you look
TTITLE1=johnny paycheck - song and dance man
TTITLE2=johnny cash - straight a's in love
TTITLE3=conway twitty - have I been away too long
TTITLE4=hank williams - move it on over
TTITLE5=johnny cash - hey good looking
TTITLE6=jackson stonewall - love gets all over me
TTITLE7=ed bruce and lynn anderson - quietly crazy
TTITLE8=bonnie taylor - naturally
TTITLE9=loretta lynn - coal miner's daughter
TTITLE10=lynn anderson - top of the world
TTITLE11=george jones - brothers of a bottle
TTITLE12=waylon jennings - money
TTITLE13=freddy fender - but I do
TTITLE14=charlie rich - behind closed doors
TTITLE15=razzy bailey - teddy bear
TTITLE16=willie nelson - I'll stay around
TTITLE17=kenny rogers - ticket to nowhere
TTITLE18=tanya tucker - delta dawn
TTITLE19=dolly parton - honky tonky angels
EXTD=
EXTT0=
EXTT1=
EXTT2=
EXTT3=
EXTT4=
EXTT5=
EXTT6=
EXTT7=
EXTT8=
EXTT9=
EXTT10=
EXTT11=
EXTT12=
EXTT13=
EXTT14=
EXTT15=
EXTT16=
EXTT17=
EXTT18=
EXTT19=
PLAYORDER=
